HIERARCHY
ROOT Hips
{
	OFFSET 0.000000 0.000000 0.000000
	CHANNELS 6 Xposition Yposition Zposition Zrotation Yrotation Xrotation 
	JOINT LHipJoint
	{
		OFFSET 0.000000 0.000000 0.000000
		CHANNELS 3 Zrotation Yrotation Xrotation
		JOINT LeftUpLeg
		{
			OFFSET 1.363060 -1.794630 0.839290
			CHANNELS 3 Zrotation Yrotation Xrotation
			JOINT LeftLeg
			{
				OFFSET 2.448110 -6.726130 0.000000
				CHANNELS 3 Zrotation Yrotation Xrotation
				JOINT LeftFoot
				{
					OFFSET 2.562200 -7.039590 0.000000
					CHANNELS 3 Zrotation Yrotation Xrotation
					JOINT LeftToeBase
					{
						OFFSET 0.157640 -0.433110 2.322550
						CHANNELS 3 Zrotation Yrotation Xrotation
						End Site
						{
							OFFSET 0.000000 0.000000 0.000000
						}
					}
				}
			}
		}
	}
	JOINT RHipJoint
	{
		OFFSET 0.000000 0.000000 0.000000
		CHANNELS 3 Zrotation Yrotation Xrotation
		JOINT RightUpLeg
		{
			OFFSET -1.305520 -1.794630 0.839290
			CHANNELS 3 Zrotation Yrotation Xrotation
			JOINT RightLeg
			{
				OFFSET -2.542530 -6.985550 0.000000
				CHANNELS 3 Zrotation Yrotation Xrotation
				JOINT RightFoot
				{
					OFFSET -2.568260 -7.056230 0.000000
					CHANNELS 3 Zrotation Yrotation Xrotation
					JOINT RightToeBase
					{
						OFFSET -0.164730 -0.452590 2.363150
						CHANNELS 3 Zrotation Yrotation Xrotation
						End Site
						{
							OFFSET 0.000000 0.000000 0.000000
						}
					}
				}
			}
		}
	}
}
MOTION
Frames: 27
Frame Time: 0.008333
-1.363920 17.121683 1.357714 -26.586880 -72.762425 27.770342 -11.721456 -2.557930 -3.875985 -5.868058 -13.823498 -1.720803 -1.126367 1.640455 21.263249 1.795210 9.508743 -11.783494 -0.738600 0.000000 -29.346900 5.555631 7.314418 2.297676 -7.070127 -15.016350 -90.639349 2.463752 0.580423 2.879779 0.367942 -2.274381 3.431461 -2.033000 0.000001 -73.191900
-1.364398 17.112471 1.353431 -25.619414 -72.595622 26.897482 -11.662124 -2.494684 -3.716424 -6.061543 -13.855303 -2.242738 -1.149634 1.618812 21.681863 1.755434 9.250720 -11.915076 -0.754800 -0.000000 -29.341300 5.748391 7.287185 2.350049 -8.081241 -14.984361 -87.900666 2.086211 0.712844 1.470086 0.267734 -5.014841 4.333110 -3.216800 0.000001 -74.949200
-1.364069 17.103602 1.352928 -25.005348 -72.529934 26.388665 -11.621375 -2.411589 -3.498990 -6.164330 -13.808920 -2.938443 -1.161712 1.597615 22.218715 1.720835 9.022183 -12.086981 -0.778700 0.000000 -29.353600 5.935051 7.234012 2.290117 -8.659894 -14.730053 -84.234189 1.730525 0.937767 -1.440171 -0.150194 -7.810548 7.360788 -4.388500 0.000000 -77.512200
-1.362812 17.095088 1.356244 -24.766388 -72.546900 26.144472 -11.595019 -2.302673 -3.224669 -6.203527 -13.699111 -3.607561 -1.164699 1.578002 22.777976 1.695458 8.849191 -12.273506 -0.806800 0.000000 -29.360600 6.075519 7.159387 2.006062 -8.202464 -14.436007 -79.807495 1.533375 1.229112 -5.864772 -0.972951 -9.772933 12.693099 -5.183800 -0.000000 -80.110800
-1.360510 17.086370 1.361729 -24.711791 -72.649485 25.973478 -11.573534 -2.198165 -2.995065 -6.275538 -13.600255 -4.016920 -1.167603 1.562952 23.217173 1.687574 8.783614 -12.443112 -0.836600 -0.000000 -29.339200 6.189374 7.044941 1.643673 -7.029197 -14.223339 -77.256261 1.564383 1.151726 -6.672860 -1.630345 -10.207708 17.335448 -5.372500 -0.000000 -82.016801
-1.357880 17.077253 1.367251 -24.729492 -72.826829 25.794626 -11.552985 -2.127345 -2.894408 -6.414937 -13.516778 -4.050150 -1.176500 1.554661 23.457766 1.695281 8.812978 -12.580903 -0.865400 0.000000 -29.289500 6.283031 6.897125 1.365127 -6.039175 -13.986131 -78.293360 1.703053 0.381945 0.084793 -1.604607 -9.493710 18.634990 -5.132800 -0.000000 -82.223600
-1.355242 17.068836 1.373509 -25.116789 -73.040211 25.767695 -11.544982 -2.053876 -2.819957 -6.500566 -13.297962 -3.768933 -1.185606 1.554694 23.551741 1.701401 8.833742 -12.691068 -0.888000 0.000000 -29.273800 6.301809 6.771836 0.917085 -5.174869 -13.661543 -78.570212 1.754117 -0.400319 6.531492 -1.529702 -8.571208 20.490436 -4.782800 -0.000000 -80.466200
-1.353128 17.062610 1.381658 -25.967199 -73.343320 26.121093 -11.559779 -1.978986 -2.770397 -6.470763 -12.876752 -3.381516 -1.191366 1.557836 23.542528 1.697659 8.797670 -12.775559 -0.901401 0.000000 -29.315300 6.281839 6.648261 0.413115 -4.522244 -13.107417 -78.056229 1.718895 -1.071796 12.142230 -1.445344 -7.591002 22.515477 -4.350099 -0.000000 -77.338800
-1.352305 17.059566 1.391885 -27.216843 -73.764536 26.897453 -11.593638 -1.899842 -2.736669 -6.339973 -12.273497 -3.019225 -1.192995 1.557334 23.442870 1.684900 8.713419 -12.826293 -0.904901 0.000000 -29.399400 6.264324 6.505917 -0.067462 -3.959173 -12.302631 -77.051101 1.646816 -1.607656 16.923811 -1.343655 -6.456151 24.253798 -3.758000 0.000000 -73.916400
-1.353073 17.060036 1.403755 -28.771435 -74.299140 28.048602 -11.640176 -1.813536 -2.709641 -6.147312 -11.537108 -2.723373 -1.191555 1.549063 23.245900 1.666292 8.603087 -12.832649 -0.898400 -0.000001 -29.510900 6.273895 6.335708 -0.494292 -3.374830 -11.300200 -75.826532 1.566258 -2.037441 21.094737 -1.215614 -5.120660 25.413909 -2.984600 0.000000 -71.115900
-1.356294 17.064011 1.416284 -30.515654 -74.911026 29.480210 -11.694058 -1.717345 -2.675195 -5.928845 -10.729165 -2.512513 -1.188387 1.530864 22.958927 1.643762 8.478873 -12.791595 -0.882900 0.000000 -29.633900 6.318753 6.138166 -0.857228 -2.724711 -10.187879 -74.558301 1.480516 -2.397510 24.888760 -1.062543 -3.629213 25.904866 -2.083200 0.000000 -69.565600
-1.362458 17.071057 1.428189 -32.322264 -75.549810 31.054049 -11.749913 -1.610977 -2.623668 -5.718155 -9.913474 -2.363010 -1.184787 1.502654 22.585455 1.619319 8.352203 -12.702240 -0.859400 -0.000000 -29.762300 6.395214 5.921320 -1.165003 -2.005145 -9.065249 -73.312231 1.383149 -2.713798 28.487114 -0.890806 -2.048978 25.760213 -1.128601 0.000000 -69.422700
-1.372228 17.080494 1.437751 -34.005533 -76.161423 32.568644 -11.798289 -1.495161 -2.545587 -5.553029 -9.164065 -2.244643 -1.181830 1.464724 22.135591 1.596009 8.239741 -12.567895 -0.830100 -0.000000 -29.878400 6.498962 5.696175 -1.427750 -1.248794 -8.030946 -72.096627 1.267484 -2.999965 31.997334 -0.710294 -0.448581 25.084007 -0.194600 0.000000 -70.489101
-1.385800 17.091450 1.443674 -35.392271 -76.703043 33.828991 -11.830777 -1.372116 -2.437721 -5.457483 -8.538830 -2.121712 -1.180296 1.418739 21.621430 1.576154 8.153347 -12.395155 -0.797200 0.000000 -29.978900 6.626470 5.472957 -1.657904 -0.497450 -7.155854 -70.872880 1.131295 -3.258584 35.439966 -0.534916 1.092344 24.035050 0.650300 0.000000 -72.430300
-1.403255 17.103070 1.444926 -36.320321 -77.147224 34.660486 -11.839178 -1.244111 -2.297644 -5.447392 -8.082795 -1.980466 -1.180869 1.366489 21.064927 1.561788 8.103253 -12.194622 -0.763000 0.000001 -30.053101 6.777605 5.258240 -1.861192 0.202649 -6.479290 -69.603035 0.976711 -3.487836 38.778052 -0.379431 2.490043 22.791761 1.354300 -0.000001 -74.828000
-1.424438 17.114681 1.441026 -36.683209 -77.485613 34.953041 -11.818000 -1.113405 -2.125894 -5.529612 -7.819647 -1.818425 -1.184225 1.309740 20.486635 1.554620 8.098311 -11.976925 -0.729200 0.000000 -30.102600 6.952688 5.054049 -2.039846 0.814862 -6.005753 -68.259147 0.808443 -3.685550 41.946880 -0.256478 3.664303 21.520588 1.887800 0.000000 -77.198800
-1.449075 17.125760 1.431953 -36.442000 -77.723303 34.673997 -11.765252 -0.982165 -1.923368 -5.703348 -7.753611 -1.653413 -1.190915 1.249751 19.911135 1.555769 8.143945 -11.754469 -0.697500 -0.000000 -30.123401 7.150272 4.858626 -2.190788 1.314648 -5.711444 -66.837588 0.631379 -3.851015 44.879571 -0.175178 4.542085 20.359197 2.241800 0.000000 -79.170400
-1.476845 17.136055 1.418502 -35.667615 -77.872350 33.905547 -11.687578 -0.852336 -1.692661 -5.945597 -7.856603 -1.522058 -1.200861 1.188076 19.369567 1.563436 8.227240 -11.541728 -0.668900 -0.000000 -30.117000 7.363466 4.666991 -2.309730 1.704679 -5.550431 -65.351888 0.450561 -3.984583 47.522907 -0.139743 5.065202 19.394208 2.420201 -0.000000 -80.496401
-1.507093 17.145351 1.401463 -34.466381 -77.953505 32.759990 -11.590858 -0.725748 -1.439424 -6.239577 -8.092676 -1.446591 -1.213959 1.125459 18.876767 1.576557 8.340590 -11.346851 -0.643900 0.000000 -30.090801 7.584986 4.475796 -2.394039 1.994729 -5.472244 -63.824354 0.269634 -4.088375 49.856773 -0.149614 5.207899 18.650055 2.437401 0.000000 -81.031501
-1.539462 17.153708 1.381960 -32.990297 -77.990093 31.395734 -11.484257 -0.603232 -1.170941 -6.558605 -8.409587 -1.448489 -1.229706 1.062664 18.443718 1.592230 8.464860 -11.175903 -0.622300 0.000000 -30.055500 7.806242 4.282074 -2.442485 2.209639 -5.424984 -62.280358 0.091979 -4.165120 51.886862 -0.200547 4.973293 18.100980 2.309200 -0.000000 -80.783099
-1.573416 17.161116 1.360485 -31.333721 -78.009187 29.905770 -11.369567 -0.485382 -0.894334 -6.899028 -8.772049 -1.525946 -1.247964 0.998946 18.058578 1.610405 8.600394 -11.025076 -0.603700 0.000001 -30.014900 8.023483 4.086399 -2.454617 2.361815 -5.368881 -60.748023 -0.080552 -4.219404 53.647746 -0.285768 4.401928 17.686678 2.056500 0.000000 -79.869100
-1.608432 17.167709 1.338213 -29.654715 -78.033328 28.441659 -11.256959 -0.371978 -0.619518 -7.229768 -9.117669 -1.683586 -1.268146 0.935325 17.720655 1.626294 8.716815 -10.895764 -0.586899 0.000000 -29.983200 8.230602 3.887267 -2.433804 2.487099 -5.266793 -59.240193 -0.245597 -4.254338 55.177565 -0.397274 3.550949 17.336413 1.700301 -0.000000 -78.503500
-1.644212 17.173667 1.315683 -28.041364 -78.082807 27.083246 -11.150675 -0.262389 -0.354817 -7.537819 -9.404454 -1.908191 -1.289955 0.871745 17.413240 1.637376 8.799456 -10.781591 -0.570900 0.000000 -29.970100 8.425827 3.684307 -2.383912 2.607912 -5.096236 -57.763619 -0.401952 -4.273953 56.521137 -0.526294 2.499317 16.984327 1.270100 0.000000 -76.923400
-1.680154 17.179086 1.293492 -26.575524 -78.172710 25.895672 -11.055549 -0.156414 -0.109577 -7.809470 -9.594916 -2.177926 -1.313170 0.808968 17.120574 1.640952 8.832551 -10.677613 -0.554400 0.000000 -29.982700 8.607903 3.476776 -2.311970 2.747005 -4.845392 -56.308630 -0.548488 -4.281174 57.713190 -0.664589 1.328649 16.584791 0.798800 0.000000 -75.406000
-1.717214 17.184310 1.270468 -25.112049 -78.311134 24.743692 -10.958430 -0.052014 0.124849 -8.087538 -9.722984 -2.478703 -1.338893 0.742522 16.807567 1.642007 8.850892 -10.564767 -0.535500 -0.000000 -30.009500 8.784744 3.267227 -2.212407 2.874479 -4.527031 -54.906031 -0.686274 -4.283532 58.802632 -0.801714 0.144746 16.098549 0.331501 -0.000000 -73.997400
-1.754075 17.189377 1.248065 -23.825685 -78.497548 23.771329 -10.875248 0.050269 0.334004 -8.324476 -9.734036 -2.786794 -1.366047 0.677058 16.479328 1.633551 8.810476 -10.448375 -0.514000 -0.000000 -30.068099 8.949686 3.051309 -2.101197 3.038861 -4.139489 -53.502454 -0.812013 -4.278784 59.777982 -0.931695 -0.998175 15.527186 -0.106900 -0.000000 -72.963900
-1.790925 17.194473 1.225959 -22.667116 -78.726744 22.925535 -10.802684 0.151329 0.521166 -8.532607 -9.647327 -3.087538 -1.394794 0.611931 16.123357 1.617250 8.723594 -10.320668 -0.489200 0.000000 -30.154000 9.105025 2.829059 -1.981144 3.232875 -3.703384 -52.091330 -0.924392 -4.269534 60.642477 -1.046776 -2.030911 14.869090 -0.486800 -0.000001 -72.279700
